<svg xmlns="http://www.w3.org/2000/svg" viewBox="0 0 180 180"><defs><linearGradient id="b" x1=".1" y1="0" x2=".9" y2="1"><stop stop-color="#fff2ad"/><stop offset=".3" stop-color="#f0c451"/><stop offset=".7" stop-color="#c4861e"/><stop offset="1" stop-color="#6f4210"/></linearGradient><filter id="s"><feDropShadow dx="0" dy="6" stdDeviation="4" flood-opacity=".3"/></filter></defs><g filter="url(#s)"><path d="M90 20c11 0 19 8 19 17 0 4-1 8-4 11 30 8 50 36 50 71 0 14 6 25 14 33H11c8-8 14-19 14-33 0-35 20-63 50-71-3-3-4-7-4-11 0-9 8-17 19-17Z" fill="url(#b)" stroke="#64420e" stroke-width="5"/><rect x="8" y="139" width="164" height="19" rx="9" fill="url(#b)" stroke="#64420e" stroke-width="5"/><circle cx="90" cy="163" r="15" fill="#bb7618" stroke="#64420e" stroke-width="5"/><path d="M56 68c-12 17-17 37-17 55" fill="none" stroke="#fff8cf" stroke-width="10" stroke-linecap="round" opacity=".65"/></g></svg>
